<svg width="267" height="100" viewBox="0 0 267 100" fill="none" xmlns="http://www.w3.org/2000/svg">
<g filter="url(#filter0_b_1_193)">
<path d="M10 0H267V90L257 100H0V10L10 0Z" fill="#403CFF"/>
<line opacity="0.2" x1="88.5" y1="-2.18557e-08" x2="88.5" y2="100" stroke="white"/>
<g clip-path="url(#clip0_1_193)">
<path d="M44 30C32.956 30 24 38.956 24 50C24 61.044 32.956 70 44 70C55.044 70 64 61.044 64 50C64 38.956 55.048 30 44 30ZM33.868 50.672L33.952 50.536L39.156 42.396C39.232 42.28 39.412 42.292 39.468 42.42C40.336 44.368 41.088 46.792 40.736 48.3C40.588 48.92 40.176 49.76 39.712 50.536C39.652 50.648 39.588 50.76 39.516 50.868C39.484 50.916 39.428 50.944 39.368 50.944H34.02C33.876 50.944 33.792 50.788 33.868 50.672ZM57.056 53.472C57.056 53.548 57.012 53.612 56.948 53.64C56.544 53.812 55.164 54.448 54.592 55.244C53.128 57.28 52.012 60.192 49.512 60.192H39.088C35.392 60.192 32.4 57.188 32.4 53.48V53.36C32.4 53.264 32.48 53.184 32.58 53.184H38.388C38.504 53.184 38.588 53.288 38.58 53.404C38.536 53.78 38.608 54.168 38.788 54.52C39.132 55.22 39.848 55.656 40.62 55.656H43.496V53.412H40.652C40.508 53.412 40.42 53.244 40.504 53.124C40.536 53.076 40.568 53.028 40.608 52.972C40.876 52.588 41.26 51.996 41.644 51.32C41.904 50.864 42.156 50.376 42.36 49.888C42.4 49.8 42.432 49.708 42.468 49.62C42.524 49.464 42.58 49.316 42.62 49.172C42.66 49.048 42.696 48.92 42.728 48.8C42.824 48.384 42.864 47.944 42.864 47.488C42.864 47.308 42.856 47.12 42.84 46.944C42.832 46.748 42.808 46.552 42.784 46.356C42.768 46.184 42.736 46.012 42.704 45.836C42.66 45.576 42.604 45.316 42.54 45.056L42.516 44.956C42.468 44.776 42.424 44.608 42.368 44.428C42.204 43.868 42.02 43.32 41.82 42.808C41.748 42.604 41.668 42.408 41.584 42.216C41.464 41.92 41.34 41.652 41.228 41.4C41.168 41.284 41.12 41.18 41.072 41.072C41.016 40.952 40.96 40.832 40.9 40.716C40.86 40.628 40.812 40.544 40.78 40.464L40.428 39.816C40.38 39.728 40.46 39.62 40.556 39.648L42.756 40.244H42.764C42.768 40.244 42.768 40.244 42.772 40.244L43.06 40.328L43.38 40.416L43.496 40.448V39.144C43.496 38.512 44 38 44.628 38C44.94 38 45.224 38.128 45.424 38.336C45.628 38.544 45.756 38.828 45.756 39.144V41.084L45.992 41.148C46.008 41.156 46.028 41.164 46.044 41.176C46.1 41.216 46.184 41.28 46.288 41.36C46.372 41.424 46.46 41.504 46.564 41.588C46.776 41.76 47.032 41.98 47.308 42.232C47.38 42.296 47.452 42.36 47.52 42.428C47.876 42.76 48.276 43.148 48.66 43.58C48.768 43.704 48.872 43.824 48.98 43.956C49.084 44.088 49.2 44.216 49.296 44.344C49.428 44.516 49.564 44.696 49.688 44.884C49.744 44.972 49.812 45.064 49.864 45.152C50.024 45.388 50.16 45.632 50.292 45.876C50.348 45.988 50.404 46.112 50.452 46.232C50.6 46.56 50.716 46.892 50.788 47.228C50.812 47.3 50.828 47.376 50.836 47.448V47.464C50.86 47.56 50.868 47.664 50.876 47.772C50.908 48.112 50.892 48.456 50.82 48.8C50.788 48.944 50.748 49.08 50.7 49.228C50.648 49.368 50.6 49.512 50.536 49.652C50.412 49.936 50.268 50.224 50.096 50.488C50.04 50.588 49.972 50.692 49.908 50.792C49.836 50.896 49.76 50.996 49.696 51.092C49.604 51.216 49.508 51.344 49.408 51.46C49.32 51.58 49.232 51.7 49.132 51.808C48.996 51.972 48.864 52.124 48.724 52.272C48.644 52.368 48.556 52.468 48.464 52.556C48.376 52.656 48.284 52.744 48.204 52.824C48.064 52.964 47.952 53.068 47.856 53.16L47.628 53.364C47.596 53.396 47.552 53.412 47.508 53.412H45.756V55.656H47.96C48.452 55.656 48.92 55.484 49.3 55.16C49.428 55.048 49.992 54.56 50.66 53.824C50.684 53.796 50.712 53.78 50.744 53.772L56.828 52.012C56.944 51.98 57.056 52.064 57.056 52.184V53.472Z" fill="white"/>
</g>
<path d="M113.584 45V32.4H119.146C120.01 32.4 120.742 32.526 121.342 32.778C121.942 33.018 122.392 33.372 122.692 33.84C123.004 34.296 123.16 34.848 123.16 35.496C123.16 36.216 122.98 36.822 122.62 37.314C122.272 37.806 121.762 38.136 121.09 38.304L121.054 37.962C121.618 38.082 122.104 38.292 122.512 38.592C122.932 38.892 123.256 39.264 123.484 39.708C123.712 40.14 123.826 40.632 123.826 41.184C123.826 41.82 123.718 42.378 123.502 42.858C123.286 43.326 122.974 43.722 122.566 44.046C122.158 44.37 121.678 44.61 121.126 44.766C120.586 44.922 119.986 45 119.326 45H113.584ZM116.464 42.444H119.218C119.554 42.444 119.836 42.39 120.064 42.282C120.304 42.174 120.49 42.018 120.622 41.814C120.754 41.598 120.82 41.34 120.82 41.04C120.82 40.764 120.748 40.53 120.604 40.338C120.472 40.146 120.28 40.002 120.028 39.906C119.776 39.798 119.476 39.744 119.128 39.744H116.464V42.444ZM116.464 37.458H118.714C119.026 37.458 119.29 37.41 119.506 37.314C119.734 37.206 119.902 37.062 120.01 36.882C120.13 36.69 120.19 36.462 120.19 36.198C120.19 35.814 120.058 35.514 119.794 35.298C119.53 35.07 119.134 34.956 118.606 34.956H116.464V37.458ZM131.515 45.108C130.471 45.108 129.541 44.898 128.725 44.478C127.909 44.046 127.267 43.458 126.799 42.714C126.343 41.97 126.115 41.118 126.115 40.158V32.4H129.211V39.996C129.211 40.452 129.313 40.866 129.517 41.238C129.721 41.598 129.997 41.886 130.345 42.102C130.693 42.306 131.083 42.408 131.515 42.408C131.971 42.408 132.373 42.306 132.721 42.102C133.081 41.886 133.369 41.598 133.585 41.238C133.801 40.866 133.909 40.452 133.909 39.996V32.4H136.897V40.158C136.897 41.118 136.663 41.97 136.195 42.714C135.739 43.458 135.103 44.046 134.287 44.478C133.471 44.898 132.547 45.108 131.515 45.108ZM143.051 45V38.718L143.177 39.6L138.083 32.4H141.557L145.445 37.98L143.861 37.926L147.371 32.4H150.737L145.859 39.798L146.129 38.574V45H143.051ZM157.969 45V32.4H160.705L167.311 41.4L166.717 41.31C166.657 40.914 166.609 40.536 166.573 40.176C166.537 39.816 166.501 39.462 166.465 39.114C166.441 38.766 166.417 38.412 166.393 38.052C166.381 37.692 166.369 37.302 166.357 36.882C166.357 36.462 166.357 36.006 166.357 35.514V32.4H169.327V45H166.555L159.661 35.712L160.579 35.838C160.639 36.414 160.687 36.906 160.723 37.314C160.771 37.71 160.807 38.064 160.831 38.376C160.867 38.688 160.891 38.97 160.903 39.222C160.915 39.474 160.921 39.726 160.921 39.978C160.933 40.218 160.939 40.488 160.939 40.788V45H157.969ZM178.23 45.18C177.27 45.18 176.394 45.018 175.602 44.694C174.81 44.37 174.12 43.914 173.532 43.326C172.944 42.738 172.488 42.048 172.164 41.256C171.84 40.464 171.678 39.594 171.678 38.646C171.678 37.698 171.84 36.828 172.164 36.036C172.488 35.244 172.944 34.554 173.532 33.966C174.12 33.378 174.81 32.922 175.602 32.598C176.394 32.274 177.264 32.112 178.212 32.112C179.16 32.112 180.03 32.274 180.822 32.598C181.614 32.922 182.304 33.378 182.892 33.966C183.48 34.554 183.93 35.244 184.242 36.036C184.566 36.828 184.728 37.698 184.728 38.646C184.728 39.582 184.566 40.452 184.242 41.256C183.93 42.048 183.48 42.738 182.892 43.326C182.304 43.914 181.614 44.37 180.822 44.694C180.03 45.018 179.166 45.18 178.23 45.18ZM178.212 42.3C178.704 42.3 179.154 42.21 179.562 42.03C179.982 41.85 180.342 41.598 180.642 41.274C180.954 40.938 181.194 40.548 181.362 40.104C181.53 39.66 181.614 39.174 181.614 38.646C181.614 38.118 181.53 37.632 181.362 37.188C181.194 36.744 180.954 36.36 180.642 36.036C180.342 35.7 179.982 35.442 179.562 35.262C179.154 35.082 178.704 34.992 178.212 34.992C177.72 34.992 177.264 35.082 176.844 35.262C176.436 35.442 176.076 35.7 175.764 36.036C175.452 36.36 175.212 36.744 175.044 37.188C174.888 37.632 174.81 38.118 174.81 38.646C174.81 39.174 174.888 39.666 175.044 40.122C175.212 40.566 175.452 40.95 175.764 41.274C176.076 41.598 176.436 41.85 176.844 42.03C177.264 42.21 177.72 42.3 178.212 42.3ZM189.276 45L185.496 32.4H188.61L190.5 39.024C190.584 39.324 190.656 39.63 190.716 39.942C190.788 40.242 190.842 40.53 190.878 40.806C190.926 41.082 190.962 41.34 190.986 41.58C191.01 41.808 191.034 42 191.058 42.156H190.662C190.734 41.712 190.794 41.316 190.842 40.968C190.902 40.62 190.968 40.296 191.04 39.996C191.112 39.684 191.202 39.36 191.31 39.024L193.182 34.038H195.63L197.466 39.024C197.61 39.42 197.73 39.792 197.826 40.14C197.922 40.488 197.994 40.824 198.042 41.148C198.102 41.46 198.15 41.772 198.186 42.084L197.826 42.138C197.85 41.922 197.868 41.724 197.88 41.544C197.892 41.352 197.904 41.172 197.916 41.004C197.94 40.824 197.964 40.638 197.988 40.446C198.012 40.254 198.048 40.044 198.096 39.816C198.144 39.576 198.21 39.306 198.294 39.006L200.166 32.4H203.208L199.428 45H197.088L194.1 37.746L194.442 37.782L191.688 45H189.276ZM209.048 45L214.034 32.4H216.626L221.576 45H218.48L216.104 38.61C216.008 38.358 215.912 38.088 215.816 37.8C215.72 37.512 215.624 37.218 215.528 36.918C215.432 36.606 215.336 36.306 215.24 36.018C215.156 35.718 215.084 35.442 215.024 35.19L215.564 35.172C215.492 35.472 215.408 35.766 215.312 36.054C215.228 36.342 215.138 36.63 215.042 36.918C214.958 37.194 214.862 37.476 214.754 37.764C214.646 38.04 214.544 38.328 214.448 38.628L212.072 45H209.048ZM211.424 42.588L212.378 40.284H218.174L219.11 42.588H211.424ZM224.988 45V35.1H221.244V32.4H231.882V35.1H228.048V45H224.988ZM119.326 68.18C118.366 68.18 117.49 68.018 116.698 67.694C115.906 67.37 115.216 66.914 114.628 66.326C114.04 65.738 113.584 65.048 113.26 64.256C112.936 63.464 112.774 62.594 112.774 61.646C112.774 60.698 112.936 59.828 113.26 59.036C113.584 58.244 114.04 57.554 114.628 56.966C115.216 56.378 115.906 55.922 116.698 55.598C117.49 55.274 118.36 55.112 119.308 55.112C120.256 55.112 121.126 55.274 121.918 55.598C122.71 55.922 123.4 56.378 123.988 56.966C124.576 57.554 125.026 58.244 125.338 59.036C125.662 59.828 125.824 60.698 125.824 61.646C125.824 62.582 125.662 63.452 125.338 64.256C125.026 65.048 124.576 65.738 123.988 66.326C123.4 66.914 122.71 67.37 121.918 67.694C121.126 68.018 120.262 68.18 119.326 68.18ZM119.308 65.3C119.8 65.3 120.25 65.21 120.658 65.03C121.078 64.85 121.438 64.598 121.738 64.274C122.05 63.938 122.29 63.548 122.458 63.104C122.626 62.66 122.71 62.174 122.71 61.646C122.71 61.118 122.626 60.632 122.458 60.188C122.29 59.744 122.05 59.36 121.738 59.036C121.438 58.7 121.078 58.442 120.658 58.262C120.25 58.082 119.8 57.992 119.308 57.992C118.816 57.992 118.36 58.082 117.94 58.262C117.532 58.442 117.172 58.7 116.86 59.036C116.548 59.36 116.308 59.744 116.14 60.188C115.984 60.632 115.906 61.118 115.906 61.646C115.906 62.174 115.984 62.666 116.14 63.122C116.308 63.566 116.548 63.95 116.86 64.274C117.172 64.598 117.532 64.85 117.94 65.03C118.36 65.21 118.816 65.3 119.308 65.3ZM128.191 68V55.4H133.627C134.419 55.4 135.121 55.58 135.733 55.94C136.357 56.3 136.849 56.792 137.209 57.416C137.581 58.04 137.767 58.742 137.767 59.522C137.767 60.338 137.581 61.07 137.209 61.718C136.849 62.354 136.357 62.858 135.733 63.23C135.121 63.602 134.419 63.788 133.627 63.788H131.251V68H128.191ZM131.197 61.106H133.195C133.459 61.106 133.699 61.04 133.915 60.908C134.131 60.776 134.305 60.596 134.437 60.368C134.569 60.14 134.635 59.876 134.635 59.576C134.635 59.264 134.569 59 134.437 58.784C134.305 58.568 134.131 58.4 133.915 58.28C133.699 58.16 133.459 58.1 133.195 58.1H131.197V61.106ZM140.109 68V55.4H148.893V58.01H143.079V65.39H149.073V68H140.109ZM141.549 62.834V60.35H148.083V62.834H141.549ZM151.711 68V55.4H154.447L161.053 64.4L160.459 64.31C160.399 63.914 160.351 63.536 160.315 63.176C160.279 62.816 160.243 62.462 160.207 62.114C160.183 61.766 160.159 61.412 160.135 61.052C160.123 60.692 160.111 60.302 160.099 59.882C160.099 59.462 160.099 59.006 160.099 58.514V55.4H163.069V68H160.297L153.403 58.712L154.321 58.838C154.381 59.414 154.429 59.906 154.465 60.314C154.513 60.71 154.549 61.064 154.573 61.376C154.609 61.688 154.633 61.97 154.645 62.222C154.657 62.474 154.663 62.726 154.663 62.978C154.675 63.218 154.681 63.488 154.681 63.788V68H151.711ZM170.406 68.18C169.578 68.18 168.828 68.084 168.156 67.892C167.496 67.688 166.908 67.4 166.392 67.028C165.876 66.644 165.414 66.194 165.006 65.678L166.86 63.572C167.46 64.376 168.06 64.916 168.66 65.192C169.272 65.468 169.902 65.606 170.55 65.606C170.874 65.606 171.168 65.564 171.432 65.48C171.696 65.396 171.9 65.276 172.044 65.12C172.188 64.952 172.26 64.748 172.26 64.508C172.26 64.328 172.212 64.166 172.116 64.022C172.032 63.878 171.912 63.752 171.756 63.644C171.6 63.536 171.414 63.44 171.198 63.356C170.982 63.26 170.754 63.182 170.514 63.122C170.274 63.05 170.028 62.99 169.776 62.942C169.08 62.786 168.474 62.594 167.958 62.366C167.442 62.138 167.01 61.862 166.662 61.538C166.326 61.202 166.074 60.824 165.906 60.404C165.738 59.972 165.654 59.492 165.654 58.964C165.654 58.4 165.78 57.884 166.032 57.416C166.296 56.936 166.644 56.528 167.076 56.192C167.52 55.844 168.03 55.58 168.606 55.4C169.182 55.208 169.782 55.112 170.406 55.112C171.234 55.112 171.942 55.202 172.53 55.382C173.13 55.55 173.64 55.796 174.06 56.12C174.492 56.444 174.858 56.834 175.158 57.29L173.268 59.108C173.016 58.796 172.74 58.538 172.44 58.334C172.152 58.13 171.84 57.974 171.504 57.866C171.18 57.758 170.844 57.704 170.496 57.704C170.136 57.704 169.824 57.752 169.56 57.848C169.308 57.932 169.11 58.058 168.966 58.226C168.822 58.382 168.75 58.574 168.75 58.802C168.75 59.006 168.81 59.18 168.93 59.324C169.05 59.468 169.212 59.6 169.416 59.72C169.62 59.828 169.854 59.924 170.118 60.008C170.382 60.08 170.658 60.14 170.946 60.188C171.606 60.32 172.2 60.494 172.728 60.71C173.268 60.926 173.73 61.19 174.114 61.502C174.51 61.814 174.81 62.186 175.014 62.618C175.23 63.038 175.338 63.53 175.338 64.094C175.338 64.97 175.122 65.714 174.69 66.326C174.27 66.926 173.688 67.388 172.944 67.712C172.212 68.024 171.366 68.18 170.406 68.18ZM177.639 68V55.4H186.423V58.01H180.609V65.39H186.603V68H177.639ZM179.079 62.834V60.35H185.613V62.834H179.079ZM187.638 68L192.624 55.4H195.216L200.166 68H197.07L194.694 61.61C194.598 61.358 194.502 61.088 194.406 60.8C194.31 60.512 194.214 60.218 194.118 59.918C194.022 59.606 193.926 59.306 193.83 59.018C193.746 58.718 193.674 58.442 193.614 58.19L194.154 58.172C194.082 58.472 193.998 58.766 193.902 59.054C193.818 59.342 193.728 59.63 193.632 59.918C193.548 60.194 193.452 60.476 193.344 60.764C193.236 61.04 193.134 61.328 193.038 61.628L190.662 68H187.638ZM190.014 65.588L190.968 63.284H196.764L197.7 65.588H190.014Z" fill="white"/>
</g>
<defs>
<filter id="filter0_b_1_193" x="-4" y="-4" width="275" height="108" filterUnits="userSpaceOnUse" color-interpolation-filters="sRGB">
<feFlood flood-opacity="0" result="BackgroundImageFix"/>
<feGaussianBlur in="BackgroundImageFix" stdDeviation="2"/>
<feComposite in2="SourceAlpha" operator="in" result="effect1_backgroundBlur_1_193"/>
<feBlend mode="normal" in="SourceGraphic" in2="effect1_backgroundBlur_1_193" result="shape"/>
</filter>
<clipPath id="clip0_1_193">
<rect width="40" height="40" fill="white" transform="translate(24 30)"/>
</clipPath>
</defs>
</svg>
