<svg width="20" height="20" viewBox="0 0 20 20" fill="none" xmlns="http://www.w3.org/2000/svg">
<g clip-path="url(#clip0_1_71)">
<path d="M16.9308 3.74315C15.6558 3.16815 14.2892 2.74315 12.86 2.50148C12.8473 2.49904 12.8341 2.50061 12.8223 2.50599C12.8105 2.51136 12.8007 2.52027 12.7942 2.53148C12.6192 2.83898 12.4242 3.23982 12.2875 3.55648C10.7718 3.33001 9.23076 3.33001 7.715 3.55648C7.56278 3.20553 7.39113 2.86334 7.20084 2.53148C7.19439 2.52013 7.18463 2.51102 7.17287 2.50537C7.1611 2.49971 7.1479 2.49777 7.135 2.49982C5.70667 2.74148 4.34 3.16648 3.06417 3.74232C3.05319 3.74692 3.04389 3.75477 3.0375 3.76482C0.444171 7.57731 -0.266663 11.2956 0.0825038 14.9673C0.0834754 14.9763 0.0862667 14.985 0.0907079 14.9929C0.0951491 15.0008 0.101147 15.0077 0.108337 15.0131C1.622 16.1152 3.31028 16.9547 5.1025 17.4965C5.115 17.5003 5.12836 17.5003 5.14085 17.4965C5.15334 17.4926 5.16437 17.485 5.1725 17.4748C5.5575 16.9581 5.90084 16.4123 6.19417 15.839C6.21167 15.8056 6.195 15.7656 6.16 15.7523C5.62167 15.5496 5.10007 15.3049 4.6 15.0206C4.59102 15.0155 4.58345 15.0082 4.57797 14.9995C4.57249 14.9907 4.56928 14.9807 4.56861 14.9704C4.56795 14.96 4.56987 14.9497 4.57418 14.9403C4.5785 14.9309 4.58508 14.9227 4.59334 14.9165C4.69834 14.839 4.80334 14.7581 4.90334 14.6773C4.91234 14.67 4.92318 14.6654 4.93466 14.6639C4.94613 14.6625 4.95779 14.6642 4.96834 14.669C8.24084 16.139 11.785 16.139 15.0192 14.669C15.0297 14.6639 15.0415 14.662 15.0532 14.6633C15.0648 14.6646 15.0758 14.6692 15.085 14.6765C15.185 14.7581 15.2892 14.839 15.395 14.9165C15.4033 14.9226 15.41 14.9307 15.4145 14.94C15.4189 14.9493 15.421 14.9596 15.4205 14.9699C15.42 14.9802 15.417 14.9903 15.4116 14.9991C15.4063 15.008 15.3989 15.0154 15.39 15.0206C14.8917 15.3073 14.3733 15.5498 13.8292 15.7515C13.8208 15.7545 13.8132 15.7593 13.8068 15.7655C13.8005 15.7717 13.7955 15.7792 13.7923 15.7875C13.789 15.7958 13.7876 15.8047 13.7881 15.8135C13.7886 15.8224 13.7909 15.8311 13.795 15.839C14.095 16.4115 14.4383 16.9565 14.8158 17.474C14.8237 17.4846 14.8346 17.4925 14.8471 17.4967C14.8597 17.5009 14.8732 17.5011 14.8858 17.4973C16.6811 16.957 18.3722 16.1171 19.8875 15.0131C19.8949 15.008 19.9011 15.0013 19.9057 14.9935C19.9103 14.9858 19.9132 14.9771 19.9142 14.9681C20.3308 10.7231 19.2158 7.03481 16.9567 3.76648C16.9511 3.75586 16.942 3.74758 16.9308 3.74315ZM6.68334 12.7315C5.69834 12.7315 4.88584 11.8406 4.88584 10.7481C4.88584 9.65481 5.6825 8.76481 6.68334 8.76481C7.69167 8.76481 8.49667 9.66231 8.48084 10.7481C8.48084 11.8415 7.68417 12.7315 6.68334 12.7315ZM13.3292 12.7315C12.3433 12.7315 11.5317 11.8406 11.5317 10.7481C11.5317 9.65481 12.3275 8.76481 13.3292 8.76481C14.3375 8.76481 15.1425 9.66231 15.1267 10.7481C15.1267 11.8415 14.3383 12.7315 13.3292 12.7315Z" fill="white"/>
</g>
<defs>
<clipPath id="clip0_1_71">
<rect width="20" height="20" fill="white"/>
</clipPath>
</defs>
</svg>
