<svg width="289" height="72" viewBox="0 0 289 72" fill="none" xmlns="http://www.w3.org/2000/svg">
<path opacity="0.15" d="M0.0898437 57L-0.40257 56.9132L-0.505967 57.5H0.0898437L0.0898437 57ZM7.39784 15.528V15.028H6.97825L6.90543 15.4412L7.39784 15.528ZM66.1498 15.528L66.5359 15.2103L66.3859 15.028H66.1498V15.528ZM74.6818 25.896L75.1743 25.9826L75.2142 25.756L75.0679 25.5783L74.6818 25.896ZM69.2098 57V57.5H69.6296L69.7023 57.0866L69.2098 57ZM55.3858 57L54.8934 56.9134L54.7902 57.5H55.3858V57ZM60.8578 25.896L61.3503 25.9826L61.3902 25.756L61.2439 25.5783L60.8578 25.896ZM58.0138 22.44L58.3999 22.1223L58.2499 21.94H58.0138L58.0138 22.44ZM47.6458 22.44L47.6458 21.94H47.2262L47.1534 22.3533L47.6458 22.44ZM41.5618 57V57.5H41.9815L42.0543 57.0867L41.5618 57ZM27.7378 57L27.2454 56.9133L27.1421 57.5H27.7378V57ZM33.8218 22.44L34.3143 22.5267L34.4176 21.94H33.8218L33.8218 22.44ZM19.9978 22.44V21.94H19.5782L19.5054 22.3533L19.9978 22.44ZM13.9138 57V57.5H14.3335L14.4063 57.0867L13.9138 57ZM0.582257 57.0868L7.89026 15.6148L6.90543 15.4412L-0.40257 56.9132L0.582257 57.0868ZM7.39784 16.028L66.1498 16.028V15.028L7.39784 15.028V16.028ZM65.7638 15.8457L74.2958 26.2137L75.0679 25.5783L66.5359 15.2103L65.7638 15.8457ZM74.1894 25.8094L68.7174 56.9134L69.7023 57.0866L75.1743 25.9826L74.1894 25.8094ZM69.2098 56.5L55.3858 56.5V57.5L69.2098 57.5V56.5ZM55.8783 57.0866L61.3503 25.9826L60.3654 25.8094L54.8934 56.9134L55.8783 57.0866ZM61.2439 25.5783L58.3999 22.1223L57.6278 22.7577L60.4718 26.2137L61.2439 25.5783ZM58.0138 21.94L47.6458 21.94L47.6458 22.94L58.0138 22.94L58.0138 21.94ZM47.1534 22.3533L41.0694 56.9133L42.0543 57.0867L48.1383 22.5267L47.1534 22.3533ZM41.5618 56.5H27.7378V57.5H41.5618V56.5ZM28.2303 57.0867L34.3143 22.5267L33.3294 22.3533L27.2454 56.9133L28.2303 57.0867ZM33.8218 21.94L19.9978 21.94V22.94L33.8218 22.94L33.8218 21.94ZM19.5054 22.3533L13.4214 56.9133L14.4063 57.0867L20.4903 22.5267L19.5054 22.3533ZM13.9138 56.5H0.0898437L0.0898437 57.5H13.9138V56.5ZM112.08 36.264V36.764H112.5L112.572 36.3499L112.08 36.264ZM114.492 22.44L114.984 22.5259L115.086 21.94H114.492V22.44ZM97.2117 22.44V21.94H97.0279L96.8879 22.0589L97.2117 22.44ZM93.1437 25.896L92.8199 25.5149L92.682 25.6321L92.651 25.8105L93.1437 25.896ZM91.3437 36.264L90.851 36.1785L90.7494 36.764H91.3437V36.264ZM73.8477 57L73.3552 56.9134L73.252 57.5H73.8477V57ZM79.3197 25.896L78.9959 25.5149L78.8585 25.6317L78.8272 25.8094L79.3197 25.896ZM91.5237 15.528V15.028H91.3399L91.1999 15.1469L91.5237 15.528ZM129.54 15.528L130.032 15.6148L130.135 15.028H129.54V15.528ZM122.232 57V57.5H122.651L122.724 57.0868L122.232 57ZM108.408 57L107.915 56.9128L107.811 57.5H108.408V57ZM110.856 43.176L111.348 43.2632L111.452 42.676H110.856V43.176ZM90.1197 43.176V42.676H89.7004L89.6273 43.0888L90.1197 43.176ZM87.6717 57V57.5H88.0909L88.164 57.0872L87.6717 57ZM112.572 36.3499L114.984 22.5259L113.999 22.3541L111.587 36.1781L112.572 36.3499ZM114.492 21.94L97.2117 21.94V22.94L114.492 22.94V21.94ZM96.8879 22.0589L92.8199 25.5149L93.4674 26.2771L97.5354 22.8211L96.8879 22.0589ZM92.651 25.8105L90.851 36.1785L91.8363 36.3495L93.6363 25.9815L92.651 25.8105ZM91.3437 36.764L112.08 36.764V35.764L91.3437 35.764V36.764ZM74.3401 57.0866L79.8121 25.9826L78.8272 25.8094L73.3552 56.9134L74.3401 57.0866ZM79.6434 26.2771L91.8474 15.909L91.1999 15.1469L78.9959 25.5149L79.6434 26.2771ZM91.5237 16.028L129.54 16.028V15.028L91.5237 15.028V16.028ZM129.047 15.4412L121.739 56.9132L122.724 57.0868L130.032 15.6148L129.047 15.4412ZM122.232 56.5L108.408 56.5V57.5L122.232 57.5V56.5ZM108.9 57.0872L111.348 43.2632L110.363 43.0888L107.915 56.9128L108.9 57.0872ZM110.856 42.676L90.1197 42.676V43.676L110.856 43.676V42.676ZM89.6273 43.0888L87.1793 56.9128L88.164 57.0872L90.612 43.2632L89.6273 43.0888ZM87.6717 56.5H73.8477V57.5H87.6717V56.5ZM126.863 57L126.371 56.9132L126.267 57.5H126.863V57ZM134.171 15.528V15.028H133.752L133.679 15.4412L134.171 15.528ZM172.187 15.528L172.573 15.2103L172.423 15.028H172.187V15.528ZM180.719 25.896L181.212 25.9826L181.252 25.756L181.105 25.5783L180.719 25.896ZM175.247 57V57.5H175.667L175.74 57.0866L175.247 57ZM161.423 57L160.931 56.9134L160.828 57.5H161.423V57ZM166.895 25.896L167.388 25.9826L167.428 25.756L167.281 25.5783L166.895 25.896ZM164.051 22.44L164.437 22.1223L164.287 21.94H164.051V22.44ZM146.771 22.44V21.94H146.352L146.279 22.3533L146.771 22.44ZM140.687 57V57.5H141.107L141.18 57.0867L140.687 57ZM127.356 57.0868L134.664 15.6148L133.679 15.4412L126.371 56.9132L127.356 57.0868ZM134.171 16.028L172.187 16.028V15.028L134.171 15.028V16.028ZM171.801 15.8457L180.333 26.2137L181.105 25.5783L172.573 15.2103L171.801 15.8457ZM180.227 25.8094L174.755 56.9134L175.74 57.0866L181.212 25.9826L180.227 25.8094ZM175.247 56.5H161.423V57.5H175.247V56.5ZM161.916 57.0866L167.388 25.9826L166.403 25.8094L160.931 56.9134L161.916 57.0866ZM167.281 25.5783L164.437 22.1223L163.665 22.7577L166.509 26.2137L167.281 25.5783ZM164.051 21.94H146.771V22.94H164.051V21.94ZM146.279 22.3533L140.195 56.9133L141.18 57.0867L147.264 22.5267L146.279 22.3533ZM140.687 56.5H126.863V57.5H140.687V56.5ZM179.879 57L179.386 56.9134L179.283 57.5H179.879V57ZM185.351 25.896L185.027 25.5149L184.89 25.6317L184.858 25.8094L185.351 25.896ZM197.555 15.528V15.028H197.371L197.231 15.1469L197.555 15.528ZM235.571 15.528L236.063 15.6152L236.167 15.028H235.571V15.528ZM233.123 29.352V29.852H233.542L233.615 29.4392L233.123 29.352ZM219.299 29.352L218.807 29.2648L218.703 29.852H219.299V29.352ZM220.523 22.44L221.015 22.5272L221.119 21.94H220.523V22.44ZM203.243 22.44V21.94H203.059L202.919 22.0589L203.243 22.44ZM199.175 25.896L198.851 25.5149L198.714 25.6318L198.682 25.8095L199.175 25.896ZM194.927 50.088L194.434 50.0015L194.331 50.588H194.927V50.088ZM215.663 50.088V50.588H216.082L216.155 50.1752L215.663 50.088ZM216.887 43.176L217.379 43.2632L217.483 42.676H216.887V43.176ZM203.063 43.176L202.571 43.0888L202.467 43.676H203.063V43.176ZM204.287 36.264V35.764H203.868L203.795 36.1768L204.287 36.264ZM231.935 36.264L232.427 36.3512L232.531 35.764H231.935V36.264ZM228.263 57V57.5H228.682L228.755 57.0872L228.263 57ZM180.371 57.0866L185.843 25.9826L184.858 25.8094L179.386 56.9134L180.371 57.0866ZM185.675 26.2771L197.879 15.909L197.231 15.1469L185.027 25.5149L185.675 26.2771ZM197.555 16.028L235.571 16.028V15.028L197.555 15.028V16.028ZM235.079 15.4408L232.631 29.2648L233.615 29.4392L236.063 15.6152L235.079 15.4408ZM233.123 28.852L219.299 28.852V29.852L233.123 29.852V28.852ZM219.791 29.4392L221.015 22.5272L220.031 22.3528L218.807 29.2648L219.791 29.4392ZM220.523 21.94L203.243 21.94V22.94L220.523 22.94V21.94ZM202.919 22.0589L198.851 25.5149L199.499 26.2771L203.567 22.8211L202.919 22.0589ZM198.682 25.8095L194.434 50.0015L195.419 50.1745L199.667 25.9825L198.682 25.8095ZM194.927 50.588L215.663 50.588V49.588L194.927 49.588V50.588ZM216.155 50.1752L217.379 43.2632L216.395 43.0888L215.171 50.0008L216.155 50.1752ZM216.887 42.676H203.063V43.676H216.887V42.676ZM203.555 43.2632L204.779 36.3512L203.795 36.1768L202.571 43.0888L203.555 43.2632ZM204.287 36.764H231.935V35.764H204.287V36.764ZM231.443 36.1768L227.771 56.9128L228.755 57.0872L232.427 36.3512L231.443 36.1768ZM228.263 56.5L179.879 56.5V57.5L228.263 57.5V56.5ZM271.127 36.264V36.764H271.547L271.619 36.3499L271.127 36.264ZM273.539 22.44L274.031 22.5259L274.133 21.94H273.539V22.44ZM256.259 22.44V21.94H256.075L255.935 22.0589L256.259 22.44ZM252.191 25.896L251.867 25.5149L251.729 25.6321L251.698 25.8105L252.191 25.896ZM250.391 36.264L249.898 36.1785L249.796 36.764H250.391V36.264ZM232.895 57L232.402 56.9134L232.299 57.5H232.895V57ZM238.367 25.896L238.043 25.5149L237.905 25.6317L237.874 25.8094L238.367 25.896ZM250.571 15.528V15.028H250.387L250.247 15.1469L250.571 15.528ZM288.587 15.528L289.079 15.6148L289.182 15.028H288.587V15.528ZM281.279 57V57.5H281.698L281.771 57.0868L281.279 57ZM267.455 57L266.962 56.9128L266.858 57.5H267.455V57ZM269.903 43.176L270.395 43.2632L270.499 42.676H269.903V43.176ZM249.167 43.176V42.676H248.747L248.674 43.0888L249.167 43.176ZM246.719 57V57.5H247.138L247.211 57.0872L246.719 57ZM271.619 36.3499L274.031 22.5259L273.046 22.3541L270.634 36.1781L271.619 36.3499ZM273.539 21.94H256.259V22.94H273.539V21.94ZM255.935 22.0589L251.867 25.5149L252.514 26.2771L256.582 22.8211L255.935 22.0589ZM251.698 25.8105L249.898 36.1785L250.883 36.3495L252.683 25.9815L251.698 25.8105ZM250.391 36.764H271.127V35.764H250.391V36.764ZM233.387 57.0866L238.859 25.9826L237.874 25.8094L232.402 56.9134L233.387 57.0866ZM238.69 26.2771L250.894 15.909L250.247 15.1469L238.043 25.5149L238.69 26.2771ZM250.571 16.028L288.587 16.028V15.028L250.571 15.028V16.028ZM288.094 15.4412L280.786 56.9132L281.771 57.0868L289.079 15.6148L288.094 15.4412ZM281.279 56.5H267.455V57.5H281.279V56.5ZM267.947 57.0872L270.395 43.2632L269.41 43.0888L266.962 56.9128L267.947 57.0872ZM269.903 42.676H249.167V43.676H269.903V42.676ZM248.674 43.0888L246.226 56.9128L247.211 57.0872L249.659 43.2632L248.674 43.0888ZM246.719 56.5L232.895 56.5V57.5L246.719 57.5V56.5Z" fill="#222222"/>
<path d="M45.4027 36L48.1387 20.448L54.2407 15.264H73.2487L72.0247 22.176H65.1127L65.7247 18.72H57.0847L55.0507 20.448L52.9267 32.544H63.2947L63.9067 29.088H56.9947L57.6067 25.632H71.4307L69.5947 36H45.4027ZM92.4665 25.632L93.6725 18.72H85.0325L82.9985 20.448L82.0985 25.632H92.4665ZM73.3505 36L76.0865 20.448L82.1885 15.264H101.196L97.5425 36H90.6305L91.8545 29.088H81.4865L80.2625 36H73.3505ZM101.298 36L104.952 15.264H111.864L108.822 32.544H126.102L125.49 36H101.298ZM129.246 36L132.9 15.264H139.812L136.77 32.544H154.05L153.438 36H129.246ZM157.194 36L159.93 20.448L166.032 15.264H185.04L183.816 22.176H176.904L177.516 18.72H168.876L166.842 20.448L165.942 25.632H183.222L182.61 29.088H165.33L164.718 32.544H181.998L181.386 36H157.194ZM185.142 36L187.878 20.448L193.98 15.264H212.988L211.458 23.904L205.374 29.088H207.102L208.218 32.544H209.946L209.334 36H202.422L200.19 29.088H196.734L197.346 25.632H202.53L204.546 23.904L205.464 18.72H196.824L194.79 20.448L192.054 36H185.142ZM213.09 36L213.702 32.544H229.254L231.288 30.816L231.594 29.088H219.498L215.214 23.904L216.744 15.264H223.656L222.126 23.904L223.566 25.632H232.206L234.024 15.264H240.936L238.2 30.816L232.098 36H213.09Z" fill="#222222"/>
<path d="M90.22 60.538C90.0613 60.3793 89.842 60.118 89.562 59.754C88.8153 58.9047 88.1667 58.1767 87.616 57.57C89.6507 55.9833 91.326 54.1447 92.642 52.054L91.76 51.004H82.17C82.1233 51.004 82.03 51.004 81.89 51.004C81.75 51.004 81.6053 50.9807 81.456 50.934L81.918 52.166C82.1327 52.1193 82.3707 52.096 82.632 52.096H91.186C89.8793 53.9533 88.386 55.554 86.706 56.898C85.754 55.9927 84.718 55.1947 83.598 54.504L82.66 55.358C85.3853 57.0567 87.546 59.0913 89.142 61.462L90.22 60.538ZM99.656 53.09C98.6667 52.0073 97.6867 51.1627 96.716 50.556L95.82 51.48C97.164 52.3853 98.1253 53.244 98.704 54.056L99.656 53.09ZM95.96 60.216L96.702 61.434C101.023 60.4727 104.197 57.668 106.222 53.02L106.502 52.474L105.172 52.082C105.153 52.2687 105.097 52.4693 105.004 52.684C104.108 54.728 103.039 56.3333 101.798 57.5C99.8287 59.18 97.8827 60.0853 95.96 60.216ZM117.45 49.464C118.066 50.2013 118.458 51.0647 118.626 52.054L119.564 51.704C119.405 50.864 118.971 50.038 118.262 49.226L117.45 49.464ZM120.012 48.932L119.158 49.17C119.793 49.8327 120.185 50.6913 120.334 51.746L121.258 51.41C121.081 50.57 120.665 49.744 120.012 48.932ZM115.476 61.294H117.968C118.285 61.294 118.621 61.056 118.976 60.58C119.573 59.0493 119.881 56.6227 119.9 53.3C119.965 53.2253 120.035 53.146 120.11 53.062L118.78 52.222L118.556 52.558H114.874L114.93 51.508C114.986 50.528 115.037 49.982 115.084 49.87L113.642 49.66L113.74 50.472C113.768 50.7053 113.782 51.0087 113.782 51.382C113.782 51.7647 113.763 52.166 113.726 52.586H110.52C110.249 52.586 109.895 52.5347 109.456 52.432L109.946 53.72C110.161 53.664 110.375 53.636 110.59 53.636H113.572C113.115 56.8373 111.677 59.054 109.26 60.286L110.184 61.266C110.184 61.2473 110.371 61.1167 110.744 60.874C112.9 59.4647 114.235 57.0427 114.748 53.608H118.556L118.654 53.72V54.042C118.654 56.7953 118.299 58.8347 117.59 60.16C116.199 60.16 115.28 60.0807 114.832 59.922L115.476 61.294ZM129.168 61.042C129.243 61.042 129.35 61.0373 129.49 61.028C132.654 60.7387 134.241 58.9467 134.25 55.652C134.25 54.448 133.872 53.3933 133.116 52.488C132.211 51.4147 131.002 50.878 129.49 50.878C129.443 50.878 129.392 50.878 129.336 50.878C128.655 50.878 128.02 50.9993 127.432 51.242C126.592 51.5873 125.878 52.1007 125.29 52.782C124.179 54.042 123.619 55.3347 123.61 56.66C123.61 58.9 124.109 60.02 125.108 60.02C127.031 60.0013 128.557 57.262 129.686 51.802C130.974 51.8207 131.954 52.4413 132.626 53.664C132.971 54.28 133.144 54.9567 133.144 55.694C133.144 57.262 132.631 58.4287 131.604 59.194C131.035 59.586 130.302 59.782 129.406 59.782H129.056C128.869 59.782 128.65 59.7493 128.398 59.684L129.168 61.042ZM127.18 52.502C127.516 52.2407 128.006 52.0633 128.65 51.97C127.521 56.618 126.377 58.942 125.22 58.942C124.837 58.942 124.646 58.1487 124.646 56.562C124.646 54.9847 125.491 53.6313 127.18 52.502ZM145.45 49.24C146.066 49.9773 146.458 50.836 146.626 51.816L147.564 51.48C147.405 50.64 146.971 49.8093 146.262 48.988L145.45 49.24ZM148.012 48.708L147.158 48.946C147.793 49.5993 148.185 50.458 148.334 51.522L149.258 51.186C149.081 50.3367 148.665 49.5107 148.012 48.708ZM143.028 49.73C143.028 49.646 143.033 49.5947 143.042 49.576L141.698 49.66C141.773 49.94 141.819 50.1593 141.838 50.318L142.048 52.39L138.184 52.726C138.053 52.7353 137.825 52.74 137.498 52.74L137.624 53.958C137.867 53.8833 138.091 53.8367 138.296 53.818L142.16 53.468L142.412 55.946L137.806 56.45C137.507 56.478 137.321 56.492 137.246 56.492C137.171 56.492 137.129 56.492 137.12 56.492L137.316 57.668C137.465 57.612 137.675 57.57 137.946 57.542L142.524 57.024L142.93 60.902C142.949 61.238 142.958 61.4993 142.958 61.686L144.288 61.574C144.223 61.406 144.176 61.182 144.148 60.902L143.742 56.884L148.194 56.38L148.81 56.352L148.67 55.162C148.483 55.2367 148.283 55.288 148.068 55.316L143.63 55.806L143.378 53.37L147.102 53.034C147.242 53.0247 147.368 53.02 147.48 53.02C147.592 53.02 147.695 53.0247 147.788 53.034L147.662 51.816C147.466 51.8813 147.247 51.928 147.004 51.956L143.28 52.278C143.112 50.6727 143.028 49.8233 143.028 49.73ZM158.96 58.186L161.746 54.476L160.976 53.734L155.74 54.658L155.152 52.432L154.116 52.726L154.69 54.868L151.834 55.358L152.142 56.436L154.942 55.89L156.482 61.798L157.504 61.49L155.992 55.68L159.996 54.938L157.812 57.864L158.96 58.186ZM174.878 52.012V50.794C174.775 50.85 174.551 50.878 174.206 50.878H167.612C167.229 50.878 167.01 50.85 166.954 50.794V52.012C167.169 51.9653 167.397 51.942 167.64 51.942H174.29C174.514 51.9513 174.71 51.9747 174.878 52.012ZM174.836 55.19C174.565 55.974 174.155 56.702 173.604 57.374C172.708 58.4847 171.653 59.2453 170.44 59.656C169.413 60.0107 168.41 60.2067 167.43 60.244L168.242 61.42C168.625 61.3267 168.877 61.2707 168.998 61.252C170.081 61.0747 171.107 60.692 172.078 60.104C173.469 59.2453 174.547 58.144 175.312 56.8C175.657 56.1933 175.914 55.54 176.082 54.84L175.438 54.112H166.744C166.483 54.112 166.263 54.0933 166.086 54.056V55.274C166.198 55.218 166.422 55.19 166.758 55.19H174.836ZM181.29 56.03L181.248 56.646L182.48 56.814C182.433 56.6087 182.41 56.3987 182.41 56.184V50.92C182.41 50.7147 182.433 50.5373 182.48 50.388L181.248 50.038C181.276 50.2433 181.29 50.4627 181.29 50.696V56.03ZM182.55 60.258L183.516 61.392C186.969 60.1227 188.696 58.1673 188.696 55.526V50.696C188.696 50.584 188.715 50.4627 188.752 50.332L187.52 49.968C187.576 50.1547 187.604 50.402 187.604 50.71V54.91C187.604 57.8127 185.919 59.5953 182.55 60.258ZM193.792 56.31H202.22L204.39 56.478L204.74 55.246L202.22 55.316H194.968L193.19 54.882L193.792 56.31Z" fill="#222222"/>
</svg>
