<svg width="790" height="144" viewBox="0 0 790 144" fill="none" xmlns="http://www.w3.org/2000/svg">
<path opacity="0.3" d="M0.148437 113L-0.836438 112.827L-1.04285 114H0.148437L0.148437 113ZM11.0924 50.792L10.445 50.0299L10.1701 50.2635L10.1076 50.6187L11.0924 50.792ZM35.5004 30.056V29.056H35.133L34.853 29.2939L35.5004 30.056ZM111.532 30.056L112.517 30.2304L112.725 29.056H111.532V30.056ZM105.412 64.616L106.061 65.3772L106.334 65.1441L106.397 64.7904L105.412 64.616ZM81.0764 85.352L80.4279 84.5908L78.361 86.352H81.0764V85.352ZM87.9884 85.352L88.9401 85.0447L88.7164 84.352H87.9884V85.352ZM92.4524 99.176L91.5008 99.4833L91.7245 100.176H92.4524V99.176ZM99.3644 99.176L100.349 99.3504L100.557 98.176H99.3644V99.176ZM96.9164 113V114H97.7549L97.9011 113.174L96.9164 113ZM69.2684 113L68.3168 113.307L68.5405 114H69.2684V113ZM60.3404 85.352L61.2921 85.0447L61.0684 84.352H60.3404V85.352ZM46.5164 85.352L45.5318 85.1776L45.3238 86.352H46.5164V85.352ZM48.9644 71.528V70.528H48.126L47.9798 71.3536L48.9644 71.528ZM69.7004 71.528V72.528H70.0704L70.3512 72.2873L69.7004 71.528ZM77.7644 64.616L78.4152 65.3753L78.6868 65.1425L78.7491 64.7904L77.7644 64.616ZM81.4364 43.88L82.4211 44.0544L82.6291 42.88H81.4364V43.88ZM46.8764 43.88V42.88H46.509L46.229 43.1179L46.8764 43.88ZM38.7404 50.792L38.093 50.0299L37.8181 50.2635L37.7556 50.6187L38.7404 50.792ZM27.7964 113V114H28.6359L28.7813 113.173L27.7964 113ZM1.13331 113.173L12.0773 50.9653L10.1076 50.6187L-0.836438 112.827L1.13331 113.173ZM11.7399 51.5541L36.1479 30.8181L34.853 29.2939L10.445 50.0299L11.7399 51.5541ZM35.5004 31.056L111.532 31.056V29.056L35.5004 29.056V31.056ZM110.548 29.8816L104.428 64.4416L106.397 64.7904L112.517 30.2304L110.548 29.8816ZM104.764 63.8548L80.4279 84.5908L81.725 86.1132L106.061 65.3772L104.764 63.8548ZM81.0764 86.352H87.9884V84.352H81.0764V86.352ZM87.0368 85.6593L91.5008 99.4833L93.4041 98.8687L88.9401 85.0447L87.0368 85.6593ZM92.4524 100.176H99.3644V98.176H92.4524V100.176ZM98.3798 99.0016L95.9318 112.826L97.9011 113.174L100.349 99.3504L98.3798 99.0016ZM96.9164 112H69.2684V114H96.9164V112ZM70.2201 112.693L61.2921 85.0447L59.3888 85.6593L68.3168 113.307L70.2201 112.693ZM60.3404 84.352H46.5164V86.352H60.3404V84.352ZM47.5011 85.5264L49.9491 71.7024L47.9798 71.3536L45.5318 85.1776L47.5011 85.5264ZM48.9644 72.528H69.7004V70.528H48.9644V72.528ZM70.3512 72.2873L78.4152 65.3753L77.1136 63.8567L69.0496 70.7687L70.3512 72.2873ZM78.7491 64.7904L82.4211 44.0544L80.4518 43.7056L76.7798 64.4416L78.7491 64.7904ZM81.4364 42.88L46.8764 42.88V44.88L81.4364 44.88L81.4364 42.88ZM46.229 43.1179L38.093 50.0299L39.3879 51.5541L47.5239 44.6421L46.229 43.1179ZM37.7556 50.6187L26.8116 112.827L28.7813 113.173L39.7253 50.9653L37.7556 50.6187ZM27.7964 112H0.148437L0.148437 114H27.7964V112ZM170.836 99.176V100.176H171.203L171.483 99.9381L170.836 99.176ZM178.972 92.264L179.619 93.0261L179.894 92.7924L179.957 92.437L178.972 92.264ZM187.468 43.88L188.453 44.0529L188.659 42.88H187.468V43.88ZM152.908 43.88V42.88H152.54L152.26 43.1179L152.908 43.88ZM144.772 50.792L144.124 50.0299L143.849 50.2636L143.787 50.619L144.772 50.792ZM136.276 99.176L135.291 99.0031L135.085 100.176H136.276V99.176ZM106.18 113L105.195 112.827L104.988 114H106.18V113ZM117.124 50.792L116.476 50.0299L116.201 50.2635L116.139 50.6187L117.124 50.792ZM141.532 30.056V29.056H141.164L140.884 29.2939L141.532 30.056ZM217.564 30.056L218.549 30.2293L218.755 29.056H217.564V30.056ZM206.62 92.264L207.267 93.0261L207.542 92.7925L207.605 92.4373L206.62 92.264ZM182.212 113V114H182.579L182.859 113.762L182.212 113ZM171.483 99.9381L179.619 93.0261L178.324 91.5019L170.188 98.4139L171.483 99.9381ZM179.957 92.437L188.453 44.0529L186.483 43.707L177.987 92.091L179.957 92.437ZM187.468 42.88L152.908 42.88V44.88L187.468 44.88V42.88ZM152.26 43.1179L144.124 50.0299L145.419 51.5541L153.555 44.6421L152.26 43.1179ZM143.787 50.619L135.291 99.0031L137.261 99.3489L145.757 50.9649L143.787 50.619ZM136.276 100.176H170.836V98.176H136.276V100.176ZM107.165 113.173L118.109 50.9653L116.139 50.6187L105.195 112.827L107.165 113.173ZM117.771 51.5541L142.179 30.8181L140.884 29.2939L116.476 50.0299L117.771 51.5541ZM141.532 31.056L217.564 31.056V29.056L141.532 29.056V31.056ZM216.579 29.8827L205.635 92.0907L207.605 92.4373L218.549 30.2293L216.579 29.8827ZM205.972 91.5019L181.564 112.238L182.859 113.762L207.267 93.0261L205.972 91.5019ZM182.212 112L106.18 112V114L182.212 114V112ZM288.675 71.528V72.528H289.516L289.66 71.6999L288.675 71.528ZM293.499 43.88L294.484 44.0519L294.689 42.88H293.499V43.88ZM258.939 43.88V42.88H258.572L258.291 43.1179L258.939 43.88ZM250.803 50.792L250.155 50.0299L249.88 50.2643L249.818 50.6209L250.803 50.792ZM247.203 71.528L246.218 71.3569L246.014 72.528H247.203V71.528ZM212.211 113L211.226 112.827L211.02 114H212.211V113ZM223.155 50.792L222.507 50.0299L222.233 50.2635L222.17 50.6187L223.155 50.792ZM247.563 30.056V29.056H247.196L246.915 29.2939L247.563 30.056ZM323.595 30.056L324.58 30.2295L324.787 29.056H323.595V30.056ZM308.979 113V114L309.818 114L309.964 113.174L308.979 113ZM281.331 113L280.346 112.826L280.138 114H281.331V113ZM286.227 85.352L287.212 85.5264L287.42 84.352H286.227V85.352ZM244.755 85.352V84.352H243.916L243.77 85.1776L244.755 85.352ZM239.859 113V114H240.697L240.844 113.174L239.859 113ZM289.66 71.6999L294.484 44.0519L292.514 43.7081L287.69 71.3561L289.66 71.6999ZM293.499 42.88L258.939 42.88V44.88L293.499 44.88V42.88ZM258.291 43.1179L250.155 50.0299L251.45 51.5541L259.586 44.6421L258.291 43.1179ZM249.818 50.6209L246.218 71.3569L248.188 71.6991L251.788 50.9631L249.818 50.6209ZM247.203 72.528H288.675V70.528H247.203V72.528ZM213.196 113.173L224.14 50.9653L222.17 50.6187L211.226 112.827L213.196 113.173ZM223.802 51.5541L248.21 30.8181L246.915 29.2939L222.507 50.0299L223.802 51.5541ZM247.563 31.056L323.595 31.056V29.056L247.563 29.056V31.056ZM322.61 29.8825L307.994 112.826L309.964 113.174L324.58 30.2295L322.61 29.8825ZM308.979 112H281.331V114H308.979V112ZM282.316 113.174L287.212 85.5264L285.242 85.1776L280.346 112.826L282.316 113.174ZM286.227 84.352H244.755V86.352H286.227V84.352ZM243.77 85.1776L238.874 112.826L240.844 113.174L245.74 85.5264L243.77 85.1776ZM239.859 112L212.211 112V114L239.859 114V112ZM382.898 99.176V100.176H383.266L383.546 99.9381L382.898 99.176ZM391.034 92.264L391.682 93.0261L391.957 92.7924L392.019 92.437L391.034 92.264ZM399.53 43.88L400.515 44.0529L400.721 42.88H399.53V43.88ZM358.058 43.88V42.88H357.219L357.073 43.7069L358.058 43.88ZM348.338 99.176L347.353 99.0029L347.147 100.176H348.338V99.176ZM318.242 113L317.257 112.826L317.051 114H318.242V113ZM332.858 30.056V29.056H332.019L331.873 29.8825L332.858 30.056ZM429.626 30.056L430.611 30.2293L430.817 29.056L429.626 29.056V30.056ZM418.682 92.264L419.33 93.0261L419.605 92.7925L419.667 92.4373L418.682 92.264ZM394.274 113V114H394.642L394.922 113.762L394.274 113ZM383.546 99.9381L391.682 93.0261L390.387 91.5019L382.251 98.4139L383.546 99.9381ZM392.019 92.437L400.515 44.0529L398.545 43.707L390.049 92.091L392.019 92.437ZM399.53 42.88L358.058 42.88V44.88L399.53 44.88V42.88ZM357.073 43.7069L347.353 99.0029L349.323 99.3491L359.043 44.0531L357.073 43.7069ZM348.338 100.176H382.898V98.176H348.338V100.176ZM319.227 113.174L333.843 30.2295L331.873 29.8825L317.257 112.826L319.227 113.174ZM332.858 31.056L429.626 31.056V29.056L332.858 29.056V31.056ZM428.641 29.8827L417.697 92.0907L419.667 92.4373L430.611 30.2293L428.641 29.8827ZM418.035 91.5019L393.627 112.238L394.922 113.762L419.33 93.0261L418.035 91.5019ZM394.274 112H318.242V114H394.274V112ZM424.273 113L423.289 112.826L423.082 114H424.273V113ZM438.889 30.056V29.056H438.05L437.905 29.8825L438.889 30.056ZM556.393 30.056L557.166 29.4206L556.866 29.056H556.393V30.056ZM573.457 50.792L574.442 50.9653L574.522 50.512L574.23 50.1566L573.457 50.792ZM562.513 113V114H563.353L563.498 113.173L562.513 113ZM534.865 113L533.881 112.827L533.674 114H534.865V113ZM545.809 50.792L546.794 50.9653L546.874 50.512L546.582 50.1566L545.809 50.792ZM540.121 43.88L540.894 43.2446L540.594 42.88H540.121V43.88ZM519.385 43.88V42.88H518.546L518.401 43.7066L519.385 43.88ZM507.217 113V114H508.057L508.202 113.173L507.217 113ZM479.569 113L478.585 112.827L478.378 114H479.569V113ZM491.737 43.88L492.722 44.0534L492.929 42.88H491.737V43.88ZM464.089 43.88V42.88L463.25 42.88L463.105 43.7066L464.089 43.88ZM451.921 113V114H452.761L452.906 113.173L451.921 113ZM425.258 113.174L439.874 30.2295L437.905 29.8825L423.289 112.826L425.258 113.174ZM438.889 31.056L556.393 31.056V29.056L438.889 29.056V31.056ZM555.621 30.6914L572.685 51.4274L574.23 50.1566L557.166 29.4206L555.621 30.6914ZM572.473 50.6187L561.529 112.827L563.498 113.173L574.442 50.9653L572.473 50.6187ZM562.513 112H534.865V114H562.513V112ZM535.85 113.173L546.794 50.9653L544.825 50.6187L533.881 112.827L535.85 113.173ZM546.582 50.1566L540.894 43.2446L539.349 44.5154L545.037 51.4274L546.582 50.1566ZM540.121 42.88H519.385V44.88H540.121V42.88ZM518.401 43.7066L506.233 112.827L508.202 113.173L520.37 44.0534L518.401 43.7066ZM507.217 112L479.569 112V114L507.217 114V112ZM480.554 113.173L492.722 44.0534L490.753 43.7066L478.585 112.827L480.554 113.173ZM491.737 42.88H464.089V44.88H491.737V42.88ZM463.105 43.7066L450.937 112.827L452.906 113.173L465.074 44.0534L463.105 43.7066ZM451.921 112H424.273V114H451.921V112ZM648.253 71.528V72.528H649.094L649.238 71.6999L648.253 71.528ZM653.077 43.88L654.062 44.0519L654.267 42.88H653.077V43.88ZM618.517 43.88V42.88H618.15L617.87 43.1179L618.517 43.88ZM610.381 50.792L609.734 50.0299L609.458 50.2643L609.396 50.6209L610.381 50.792ZM606.781 71.528L605.796 71.3569L605.592 72.528H606.781V71.528ZM571.789 113L570.804 112.827L570.598 114H571.789V113ZM582.733 50.792L582.086 50.0299L581.811 50.2635L581.748 50.6187L582.733 50.792ZM607.141 30.056V29.056H606.774L606.494 29.2939L607.141 30.056ZM683.173 30.056L684.158 30.2295L684.365 29.056H683.173V30.056ZM668.557 113V114H669.396L669.542 113.174L668.557 113ZM640.909 113L639.924 112.826L639.716 114H640.909V113ZM645.805 85.352L646.79 85.5264L646.998 84.352H645.805V85.352ZM604.333 85.352V84.352H603.495L603.348 85.1776L604.333 85.352ZM599.437 113V114H600.276L600.422 113.174L599.437 113ZM649.238 71.6999L654.062 44.0519L652.092 43.7081L647.268 71.3561L649.238 71.6999ZM653.077 42.88L618.517 42.88V44.88L653.077 44.88V42.88ZM617.87 43.1179L609.734 50.0299L611.029 51.5541L619.164 44.6421L617.87 43.1179ZM609.396 50.6209L605.796 71.3569L607.766 71.6991L611.366 50.9631L609.396 50.6209ZM606.781 72.528H648.253V70.528H606.781V72.528ZM572.774 113.173L583.718 50.9653L581.748 50.6187L570.804 112.827L572.774 113.173ZM583.38 51.5541L607.789 30.8181L606.494 29.2939L582.086 50.0299L583.38 51.5541ZM607.141 31.056L683.173 31.056V29.056L607.141 29.056V31.056ZM682.188 29.8825L667.572 112.826L669.542 113.174L684.158 30.2295L682.188 29.8825ZM668.557 112L640.909 112V114L668.557 114V112ZM641.894 113.174L646.79 85.5264L644.82 85.1776L639.924 112.826L641.894 113.174ZM645.805 84.352H604.333V86.352H645.805V84.352ZM603.348 85.1776L598.452 112.826L600.422 113.174L605.318 85.5264L603.348 85.1776ZM599.437 112L571.789 112V114L599.437 114V112ZM677.82 113L676.835 112.827L676.629 114H677.82V113ZM688.764 50.792L688.117 50.0299L687.842 50.2635L687.779 50.6187L688.764 50.792ZM713.172 30.056V29.056H712.805L712.525 29.2939L713.172 30.056ZM789.204 30.056L790.189 30.2304L790.397 29.056H789.204V30.056ZM783.084 64.616L783.733 65.3772L784.006 65.1441L784.069 64.7904L783.084 64.616ZM758.748 85.352V86.352H759.117L759.397 86.1132L758.748 85.352ZM724.188 85.352L723.204 85.1776L722.996 86.352H724.188V85.352ZM726.636 71.528V70.528H725.798L725.652 71.3536L726.636 71.528ZM747.372 71.528V72.528H747.742L748.023 72.2873L747.372 71.528ZM755.436 64.616L756.087 65.3753L756.359 65.1425L756.421 64.7904L755.436 64.616ZM759.108 43.88L760.093 44.0544L760.301 42.88H759.108V43.88ZM724.548 43.88V42.88H724.181L723.901 43.1179L724.548 43.88ZM716.412 50.792L715.765 50.0299L715.49 50.2635L715.427 50.6187L716.412 50.792ZM705.468 113V114H706.308L706.453 113.173L705.468 113ZM678.805 113.173L689.749 50.9653L687.779 50.6187L676.835 112.827L678.805 113.173ZM689.412 51.5541L713.82 30.8181L712.525 29.2939L688.117 50.0299L689.412 51.5541ZM713.172 31.056L789.204 31.056V29.056L713.172 29.056V31.056ZM788.22 29.8816L782.1 64.4416L784.069 64.7904L790.189 30.2304L788.22 29.8816ZM782.436 63.8548L758.1 84.5908L759.397 86.1132L783.733 65.3772L782.436 63.8548ZM758.748 84.352L724.188 84.352V86.352L758.748 86.352V84.352ZM725.173 85.5264L727.621 71.7024L725.652 71.3536L723.204 85.1776L725.173 85.5264ZM726.636 72.528H747.372V70.528H726.636V72.528ZM748.023 72.2873L756.087 65.3753L754.786 63.8567L746.721 70.7687L748.023 72.2873ZM756.421 64.7904L760.093 44.0544L758.124 43.7056L754.452 64.4416L756.421 64.7904ZM759.108 42.88L724.548 42.88V44.88L759.108 44.88V42.88ZM723.901 43.1179L715.765 50.0299L717.06 51.5541L725.196 44.6421L723.901 43.1179ZM715.427 50.6187L704.483 112.827L706.453 113.173L717.397 50.9653L715.427 50.6187ZM705.468 112H677.82V114H705.468V112Z" fill="#F4F4F4"/>
<path d="M210.164 66L215.028 38.352L225.876 29.136H259.668L256.948 44.496L246.132 53.712H249.204L251.188 59.856H254.26L253.172 66H240.884L236.916 53.712H230.772L231.86 47.568H241.076L244.66 44.496L246.292 35.28H230.932L227.316 38.352L222.452 66H210.164ZM288.585 59.856L292.201 56.784L295.977 35.28H280.617L277.001 38.352L273.225 59.856H288.585ZM259.849 66L264.713 38.352L275.561 29.136H309.353L304.489 56.784L293.641 66H259.849ZM343.518 47.568L345.662 35.28H330.302L326.686 38.352L325.086 47.568H343.518ZM309.534 66L314.398 38.352L325.246 29.136H359.038L352.542 66H340.254L342.43 53.712H323.998L321.822 66H309.534ZM387.955 59.856L391.571 56.784L395.347 35.28H376.915L372.595 59.856H387.955ZM359.219 66L365.715 29.136H408.723L403.859 56.784L393.011 66H359.219ZM408.904 66L415.4 29.136H467.624L475.208 38.352L470.344 66H458.056L462.92 38.352L460.392 35.28H451.176L445.768 66H433.48L438.888 35.28H426.6L421.192 66H408.904ZM511.01 47.568L513.154 35.28H497.794L494.178 38.352L492.578 47.568H511.01ZM477.026 66L481.89 38.352L492.738 29.136H526.53L520.034 66H507.746L509.922 53.712H491.49L489.314 66H477.026ZM526.711 66L531.575 38.352L542.423 29.136H576.215L573.495 44.496L562.679 53.712H547.319L548.407 47.568H557.623L561.207 44.496L562.839 35.28H547.479L543.863 38.352L538.999 66H526.711Z" fill="white"/>
<path d="M325.688 104.752H337.952V105.112C337.952 105.528 337.904 105.912 337.808 106.264H339.92C339.856 105.912 339.824 105.544 339.824 105.16V89.992L338.576 88.816H323.816V105.28C323.816 105.68 323.784 106.008 323.72 106.264H325.832C325.736 106.088 325.688 105.816 325.688 105.448V104.752ZM337.952 90.784V102.904H325.688V90.664H337.832C337.864 90.712 337.904 90.752 337.952 90.784ZM347.072 97.96H361.52L365.24 98.248L365.84 96.136L361.52 96.256H349.088L346.04 95.512L347.072 97.96ZM382.424 86.848C383.48 88.096 384.144 89.568 384.416 91.264L386.024 90.688C385.768 89.248 385.032 87.824 383.816 86.416L382.424 86.848ZM386.792 85.936L385.352 86.344C386.44 87.464 387.112 88.936 387.368 90.76L388.952 90.184C388.648 88.728 387.928 87.312 386.792 85.936ZM387.224 100.336L388.424 98.272C388.024 98.128 387.656 97.96 387.32 97.768C385.512 96.728 383.016 95.712 379.832 94.72L376.088 93.736V87.808C376.088 87.248 376.128 86.872 376.208 86.68L374.096 86.272C374.16 86.608 374.192 87.088 374.192 87.712V105.568L374.096 106.48H376.208C376.128 106.288 376.088 105.904 376.088 105.328V95.632C377.512 95.872 379.4 96.448 381.752 97.36C382.936 97.84 384.456 98.6 386.312 99.64C386.616 99.8 386.92 100.032 387.224 100.336ZM409.52 105.208C409.248 104.936 408.872 104.488 408.392 103.864C407.112 102.408 406 101.16 405.056 100.12C408.544 97.4 411.416 94.248 413.672 90.664L412.16 88.864H395.72C395.64 88.864 395.48 88.864 395.24 88.864C395 88.864 394.752 88.824 394.496 88.744L395.288 90.856C395.656 90.776 396.064 90.736 396.512 90.736H411.176C408.936 93.92 406.376 96.664 403.496 98.968C401.864 97.416 400.088 96.048 398.168 94.864L396.56 96.328C401.232 99.24 404.936 102.728 407.672 106.792L409.52 105.208ZM418.904 93.304C420.184 95.144 421.008 96.896 421.376 98.56L423.248 98.128C422.512 95.76 421.632 93.944 420.608 92.68L418.904 93.304ZM426.416 97.288L428.264 96.664C427.672 94.456 426.8 92.64 425.648 91.216L423.848 91.912C425.112 93.592 425.968 95.384 426.416 97.288ZM421.088 105.184L422.504 107.032C430.232 105.592 434.536 100.832 435.416 92.752L433.496 91.864C432.824 99.864 428.688 104.304 421.088 105.184ZM458.648 87.928C458.648 87.464 458.816 87.064 459.152 86.728C459.472 86.408 459.864 86.248 460.328 86.248C460.792 86.248 461.184 86.408 461.504 86.728C461.84 87.064 462.008 87.464 462.008 87.928C462.008 88.392 461.84 88.784 461.504 89.104C461.184 89.424 460.792 89.584 460.328 89.584C459.864 89.584 459.472 89.424 459.152 89.104C458.816 88.784 458.648 88.392 458.648 87.928ZM460.328 90.664C461.096 90.664 461.744 90.4 462.272 89.872C462.8 89.344 463.064 88.704 463.064 87.952C463.064 87.216 462.8 86.576 462.272 86.032C461.744 85.488 461.096 85.216 460.328 85.216C459.56 85.216 458.912 85.48 458.384 86.008C457.856 86.552 457.592 87.192 457.592 87.928C457.592 88.68 457.856 89.32 458.384 89.848C458.912 90.392 459.56 90.664 460.328 90.664ZM447.032 106.072C454.504 103.032 458.552 98.048 459.176 91.12L457.952 89.968H443.048C442.6 89.968 442.184 89.928 441.8 89.848V91.936C442.184 91.872 442.6 91.84 443.048 91.84H457.184C456.624 96.064 454.184 99.6 449.864 102.448C447.864 103.728 445.696 104.592 443.36 105.04L444.872 107.008C444.872 106.976 445.592 106.664 447.032 106.072Z" fill="white"/>
</svg>
